<?xml version="1.0" encoding="UTF-8" standalone="no"?>
<!-- Created with Inkscape (http://www.inkscape.org/) -->

<svg
   width="16"
   height="16"
   viewBox="0 0 4.2333333 4.2333333"
   version="1.1"
   id="svg479"
   inkscape:version="1.1.1 (3bf5ae0d25, 2021-09-20)"
   sodipodi:docname="github.svg"
   xmlns:inkscape="http://www.inkscape.org/namespaces/inkscape"
   xmlns:sodipodi="http://sodipodi.sourceforge.net/DTD/sodipodi-0.dtd"
   xmlns="http://www.w3.org/2000/svg"
   xmlns:svg="http://www.w3.org/2000/svg">
  <sodipodi:namedview
     id="namedview481"
     pagecolor="#ffffff"
     bordercolor="#666666"
     borderopacity="1.0"
     inkscape:pageshadow="2"
     inkscape:pageopacity="0.0"
     inkscape:pagecheckerboard="0"
     inkscape:document-units="mm"
     showgrid="false"
     inkscape:zoom="64"
     inkscape:cx="9.7578125"
     inkscape:cy="8.2421875"
     inkscape:window-width="2560"
     inkscape:window-height="1340"
     inkscape:window-x="0"
     inkscape:window-y="0"
     inkscape:window-maximized="1"
     inkscape:current-layer="layer1"
     units="px" />
  <defs
     id="defs476" />
  <g
     inkscape:label="Layer 1"
     inkscape:groupmode="layer"
     id="layer1">
    <path
       d="m 2.1178608,0.0039221 c -1.16871748,0 -2.11653022,0.94767939 -2.11653022,2.1167899 0,0.9350745 0.60644928,1.7285167 1.44757772,2.0085441 0.1059046,0.019375 0.144498,-0.045999 0.144498,-0.1021351 0,-0.05029 -0.0018,-0.1833514 -0.00287,-0.3599473 C 1.0017564,3.7950414 0.87752962,3.3833783 0.87752962,3.3833783 0.78124114,3.1388227 0.64246069,3.0737214 0.64246069,3.0737214 0.45027346,2.9424761 0.65701403,2.9450766 0.65701403,2.9450766 0.8694728,2.9600315 0.98122475,3.1632514 0.98122475,3.1632514 1.1700336,3.4866845 1.4767015,3.3932537 1.5972897,3.3390664 1.616521,3.202366 1.6712281,3.1090641 1.7316518,3.0561771 1.2616441,3.0026417 0.76746649,2.8211099 0.76746649,2.0099982 c 0,-0.2311698 0.0825146,-0.4199802 0.21791653,-0.5679851 -0.0218318,-0.053539 -0.0944696,-0.2687265 0.0207899,-0.56019093 0,0 0.1776335,-0.0569131 0.5820197,0.21687813 0.1687974,-0.046909 0.3499393,-0.070299 0.5299119,-0.071209 0.179843,7.368e-4 0.3608549,0.024311 0.5299122,0.071209 C 3.052143,0.8249091 3.229517,0.88182217 3.229517,0.88182217 3.345037,1.1732866 3.272398,1.3884741 3.250697,1.4420131 3.3863586,1.590018 3.4682234,1.7788284 3.4682234,2.0099982 c 0,0.8131893 -0.494957,0.9921241 -0.9663943,1.0444918 0.075887,0.06536 0.1435885,0.1945269 0.1435885,0.3920412 0,0.2828857 -0.00262,0.511201 -0.00262,0.58059 0,0.056656 0.038204,0.1225375 0.1455375,0.1018766 C 3.6288138,3.8484474 4.234743,3.0556572 4.234743,2.1207115 c 0,-1.16911042 -0.9478125,-2.11678981 -2.1169196,-2.11678981"
       style="fill:#1b1817;fill-opacity:1;fill-rule:evenodd;stroke:none;stroke-width:0.0129944"
       id="path111" />
  </g>
</svg>
